<svg width="512" height="512" viewBox="0 0 512 512" fill="none" xmlns="http://www.w3.org/2000/svg">
  <defs>
    <linearGradient id="grad1" x1="0%" y1="0%" x2="100%" y2="100%">
      <stop offset="0%" style="stop-color:#4F46E5" />
      <stop offset="100%" style="stop-color:#9333EA" />
    </linearGradient>
    <filter id="shadow" x="-20%" y="-20%" width="140%" height="140%">
      <feGaussianBlur in="SourceAlpha" stdDeviation="12" />
      <feOffset dx="0" dy="6" result="offsetblur" />
      <feComponentTransfer>
        <feFuncA type="linear" slope="0.4" />
      </feComponentTransfer>
      <feMerge>
        <feMergeNode />
        <feMergeNode in="SourceGraphic" />
      </feMerge>
    </filter>
  </defs>
  <!-- Background Rounded Square (Squircle) - Fills nearly entire space -->
  <rect x="8" y="8" width="496" height="496" rx="100" fill="url(#grad1)" fill-opacity="0.1" stroke="url(#grad1)" stroke-width="12" />
  <!-- Main Core Rounded Square -->
  <rect x="32" y="32" width="448" height="448" rx="80" fill="url(#grad1)" filter="url(#shadow)" />
  <!-- Play Button - Scaled Up even more -->
  <path d="M370 256L170 370V142L370 256Z" fill="white" />
  <!-- Lens Shine - Adjusted for rounded square -->
  <path d="M112 32C67.8172 32 32 67.8172 32 112V256C32 268.827 33.502 281.304 36.36 293.274C43.2 213.11 110.548 150 192.666 150C274.784 150 342.133 213.11 348.973 293.274C351.83 281.304 353.333 268.827 353.333 256V112C353.333 67.8172 317.516 32 273.333 32H112Z" fill="white" fill-opacity="0.2" />
</svg>
